<?xml version="1.0" standalone="no"?>
<!DOCTYPE svg PUBLIC "-//W3C//DTD SVG 20010904//EN"
 "http://www.w3.org/TR/2001/REC-SVG-20010904/DTD/svg10.dtd">
<svg version="1.0" xmlns="http://www.w3.org/2000/svg"
 width="240.000000pt" height="240.000000pt" viewBox="0 0 240.000000 240.000000"
 preserveAspectRatio="xMidYMid meet">

<g transform="translate(0.000000,240.000000) scale(0.100000,-0.100000)"
fill="#000000" stroke="none">
<path d="M1080 2395 c-8 -2 -49 -9 -90 -15 -110 -18 -222 -56 -333 -112 -328
-168 -554 -464 -633 -830 -25 -115 -25 -361 0 -476 103 -478 460 -835 938
-938 115 -25 361 -25 476 0 363 78 660 303 826 626 97 187 130 328 130 550 0
112 -5 178 -18 238 -103 477 -461 835 -936 938 -68 14 -323 28 -360 19z m50
-385 l0 -240 -62 0 c-66 0 -290 20 -297 26 -9 8 55 150 100 223 54 88 149 183
211 211 24 11 44 20 46 20 1 0 2 -108 2 -240z m226 200 c50 -31 137 -130 182
-205 44 -75 99 -202 91 -210 -9 -8 -190 -25 -276 -25 l-83 0 0 240 0 240 27
-11 c15 -6 42 -19 59 -29z m-583 -82 c-43 -65 -98 -173 -129 -253 -13 -35 -28
-59 -36 -58 -57 7 -228 47 -228 53 0 16 175 173 240 216 64 41 165 94 182 94
4 0 -9 -24 -29 -52z m929 4 c89 -47 178 -115 258 -197 50 -50 62 -68 51 -74
-24 -15 -223 -53 -230 -45 -4 5 -16 32 -26 59 -25 71 -87 191 -129 253 -32 48
-33 53 -13 46 12 -3 52 -22 89 -42z m-1244 -428 l124 -28 -6 -31 c-8 -49 -35
-255 -42 -317 l-5 -58 -194 0 -194 0 4 28 c26 163 59 281 107 377 29 57 39 67
62 62 12 -3 76 -18 144 -33z m1686 -22 c52 -102 85 -217 111 -384 l5 -28 -195
0 -194 0 -5 58 c-3 31 -13 111 -22 177 -26 186 -37 164 97 191 63 13 126 27
140 32 31 12 35 10 63 -46z m-1141 -49 l127 -6 0 -179 0 -178 -228 0 -229 0 4
58 c6 87 23 220 36 275 l11 50 76 -7 c41 -4 132 -9 203 -13z m685 -31 c12 -54
29 -187 35 -274 l4 -58 -229 0 -228 0 0 180 0 180 98 1 c53 1 129 5 167 9 147
15 140 16 153 -38z m-1154 -503 c3 -17 6 -48 6 -68 0 -31 16 -147 36 -263 6
-33 4 -38 -12 -38 -16 0 -174 -34 -256 -55 -24 -6 -29 -3 -51 42 -53 103 -86
217 -112 386 l-4 27 193 0 194 0 6 -31z m596 -142 l0 -173 -201 -13 c-111 -7
-203 -10 -205 -8 -16 16 -57 350 -45 362 2 3 105 5 228 5 l223 0 0 -173z m591
168 c8 -7 -9 -185 -27 -283 -15 -87 -18 -93 -37 -88 -12 3 -104 11 -204 17
l-183 13 0 173 0 173 223 0 c123 0 226 -2 228 -5z m534 -22 c-26 -164 -59
-282 -107 -378 -34 -66 -30 -65 -126 -40 -48 13 -113 29 -146 35 -58 12 -58
12 -52 43 5 30 32 231 42 325 l5 42 194 0 195 0 -5 -27z m-1125 -703 c0 -132
-2 -240 -5 -240 -22 0 -112 58 -152 98 -78 78 -175 241 -198 334 l-7 26 84 6
c45 3 99 8 118 9 19 2 63 5 98 5 l62 2 0 -240z m408 224 l93 -7 -6 -26 c-23
-92 -120 -255 -198 -333 -40 -40 -130 -98 -152 -98 -3 0 -5 109 -5 241 l0 242
88 -7 c48 -3 129 -9 180 -12z m-874 -135 c23 -58 68 -145 99 -192 l56 -86 -57
25 c-101 44 -202 114 -298 207 -52 49 -94 93 -94 97 0 7 224 60 243 56 4 0 27
-49 51 -107z m1244 80 c53 -11 102 -25 107 -31 15 -14 -157 -175 -246 -231
-41 -25 -100 -57 -131 -71 l-57 -25 59 90 c32 49 75 135 96 189 29 74 44 100
57 100 9 0 61 -9 115 -21z"/>
</g>
</svg>
