<?xml version="1.0" standalone="no"?>
<!DOCTYPE svg PUBLIC "-//W3C//DTD SVG 20010904//EN"
 "http://www.w3.org/TR/2001/REC-SVG-20010904/DTD/svg10.dtd">
<svg version="1.0" xmlns="http://www.w3.org/2000/svg"
 width="240.000000pt" height="240.000000pt" viewBox="0 0 240.000000 240.000000"
 preserveAspectRatio="xMidYMid meet">

<g transform="translate(0.000000,240.000000) scale(0.100000,-0.100000)"
fill="#000000" stroke="none">
<path d="M1052 2390 c-445 -63 -817 -355 -970 -763 -58 -156 -75 -252 -75
-427 0 -175 17 -271 75 -427 211 -561 830 -884 1408 -734 433 112 759 438 871
871 96 370 -1 777 -255 1071 -170 197 -397 332 -655 390 -100 22 -307 32 -399
19z m400 -139 c102 -27 218 -74 293 -118 73 -44 175 -121 175 -132 0 -5 -18
-11 -40 -14 -82 -11 -140 -87 -140 -185 0 -63 18 -111 83 -220 92 -154 123
-285 98 -413 -10 -51 -158 -561 -177 -609 -4 -12 -394 1116 -394 1141 0 3 30
9 66 12 37 4 73 12 80 18 17 14 18 45 2 56 -18 11 -620 11 -635 0 -17 -12 -17
-42 0 -55 7 -6 41 -15 76 -19 l64 -8 83 -230 84 -229 -117 -353 c-65 -194
-120 -349 -124 -345 -6 7 -389 1142 -389 1153 0 3 30 9 66 12 70 7 94 19 94
47 0 37 -20 41 -214 34 -102 -4 -186 -4 -186 0 0 16 91 124 157 187 148 143
348 245 556 285 104 20 339 12 439 -15z m748 -644 c63 -159 74 -215 74 -407 0
-148 -4 -187 -22 -253 -54 -196 -148 -364 -280 -499 -66 -68 -218 -186 -226
-177 -2 2 79 243 181 534 101 292 193 571 204 620 11 52 19 130 19 185 0 58 4
90 9 85 6 -6 24 -45 41 -88z m-1818 -420 c306 -838 346 -952 343 -956 -11 -11
-189 114 -267 188 -297 281 -412 712 -291 1096 14 44 30 89 35 99 10 18 11 18
20 3 5 -10 77 -203 160 -430z m1009 -545 c130 -356 163 -459 153 -465 -40 -23
-180 -49 -294 -54 -160 -7 -350 20 -350 50 0 17 314 927 320 927 3 0 80 -206
171 -458z"/>
</g>
</svg>
